<svg xmlns="http://www.w3.org/2000/svg" width="196.999" height="44.553"><defs><clipPath id="a"><path fill="none" d="M0 0h196.998v44.553H0z"/></clipPath></defs><g clip-path="url(#a)" fill="#1e8de2"><path d="M6.727 23.99a7.214 7.214 0 0 0 6.727 4.7 10.848 10.848 0 0 0 6.727-2.666l3.808 4.7A16 16 0 0 1 13.2 34.906 13.19 13.19 0 0 1 0 21.705 12.677 12.677 0 0 1 12.82 9.012c7.362 0 12.82 5.839 12.82 14.978zm11.805-5.078a5.929 5.929 0 0 0-5.839-4.57 5.823 5.823 0 0 0-5.966 4.57zm49.249 15.613h-4.569c-5.839 0-9.52-3.3-9.52-9.774V1.396h6.6v8h7.616v5.712h-7.616v9.647a3.038 3.038 0 0 0 3.046 3.173h4.443v6.6zm8.886-10.535a7.214 7.214 0 0 0 6.727 4.7 10.848 10.848 0 0 0 6.727-2.666l3.808 4.7a16 16 0 0 1-10.789 4.189 13.139 13.139 0 0 1-13.327-13.208 12.677 12.677 0 0 1 12.82-12.693c7.362 0 12.82 5.839 12.82 14.978zm11.932-5.078a5.929 5.929 0 0 0-5.839-4.57 5.823 5.823 0 0 0-5.966 4.57zm24.625-3.299h-3.174a4.073 4.073 0 0 0-4.316 4.062v14.724h-6.473V9.393h5.2v1.65a7.988 7.988 0 0 1 5.2-1.65h3.554zm25.385 4.315v14.6h-6.6v-14.6a4.316 4.316 0 0 0-8.631 0v14.6h-6.474V9.52h5.2v1.65a10.329 10.329 0 0 1 6.1-2.031 10.542 10.542 0 0 1 10.405 10.789zm11.298-16.12a3.7 3.7 0 0 1-3.935 3.808 3.739 3.739 0 0 1-3.808-3.808A4 4 0 0 1 145.972 0a3.77 3.77 0 0 1 3.935 3.808zm-.635 30.718h-6.474V9.393h6.474zm18.278-.001h-4.57c-5.839 0-9.52-3.3-9.52-9.774V1.396h6.6v8h7.616v5.712h-7.615v9.647a3.038 3.038 0 0 0 3.046 3.173h4.443v6.6zM32.24 19.548L25.386 9.393h7.616l3.046 4.95zm11.425 0l6.854-10.155h-7.616l-3.046 4.95zm-5.713-2.539l12.693 17.39h-7.616l-5.077-6.727-5.077 6.727h-7.616zm159.046-7.616h-7.235l-5.458 13.455-5.585-13.455h-7.108l9.012 22.086-5.331 13.074h7.235l5.458-13.455z"/></g></svg>